<mxfile host="app.diagrams.net" modified="2022-11-03T10:58:19.051Z" agent="5.0 (Windows NT 10.0; Win64; x64) AppleWebKit/537.36 (KHTML, like Gecko) Chrome/107.0.0.0 Safari/537.36" etag="DqAhCMK4EXQGuoS0FH6q" version="16.6.5" type="github">
  <diagram id="n1oC5si7nnEUVdJJnkk2" name="Page-1">
    <mxGraphModel dx="4271" dy="3025" grid="1" gridSize="10" guides="1" tooltips="1" connect="1" arrows="1" fold="1" page="1" pageScale="1" pageWidth="827" pageHeight="1169" math="0" shadow="0">
      <root>
        <mxCell id="0" />
        <mxCell id="1" parent="0" />
        <mxCell id="4pqjHKZEjBiw4mUvzdSv-1" value="zebra_srv6_locator_add" style="rounded=0;whiteSpace=wrap;html=1;fontFamily=Lucida Console;" vertex="1" parent="1">
          <mxGeometry x="250" y="240" width="200" height="60" as="geometry" />
        </mxCell>
        <mxCell id="4pqjHKZEjBiw4mUvzdSv-2" value="locator_prefix_cmd" style="rounded=0;whiteSpace=wrap;html=1;fontFamily=Lucida Console;fillColor=#ffe6cc;strokeColor=#d79b00;" vertex="1" parent="1">
          <mxGeometry x="250" y="130" width="200" height="60" as="geometry" />
        </mxCell>
        <mxCell id="4pqjHKZEjBiw4mUvzdSv-3" style="edgeStyle=orthogonalEdgeStyle;rounded=0;orthogonalLoop=1;jettySize=auto;html=1;fontFamily=Lucida Console;" edge="1" parent="1" source="4pqjHKZEjBiw4mUvzdSv-5" target="4pqjHKZEjBiw4mUvzdSv-6">
          <mxGeometry relative="1" as="geometry" />
        </mxCell>
        <mxCell id="4pqjHKZEjBiw4mUvzdSv-4" style="edgeStyle=orthogonalEdgeStyle;rounded=0;orthogonalLoop=1;jettySize=auto;html=1;fontFamily=Lucida Console;" edge="1" parent="1" source="4pqjHKZEjBiw4mUvzdSv-5" target="4pqjHKZEjBiw4mUvzdSv-19">
          <mxGeometry relative="1" as="geometry" />
        </mxCell>
        <mxCell id="4pqjHKZEjBiw4mUvzdSv-5" value="install_seg6local_routes_cmd" style="rounded=0;whiteSpace=wrap;html=1;fontFamily=Lucida Console;fillColor=#ffe6cc;strokeColor=#d79b00;" vertex="1" parent="1">
          <mxGeometry x="760" y="130" width="240" height="60" as="geometry" />
        </mxCell>
        <mxCell id="4pqjHKZEjBiw4mUvzdSv-6" value="nexthop_add_srv6_seg6local" style="rounded=0;whiteSpace=wrap;html=1;fontFamily=Lucida Console;" vertex="1" parent="1">
          <mxGeometry x="620" y="310" width="230" height="60" as="geometry" />
        </mxCell>
        <mxCell id="4pqjHKZEjBiw4mUvzdSv-7" style="edgeStyle=orthogonalEdgeStyle;rounded=0;orthogonalLoop=1;jettySize=auto;html=1;fontFamily=Lucida Console;" edge="1" parent="1" source="4pqjHKZEjBiw4mUvzdSv-8" target="4pqjHKZEjBiw4mUvzdSv-16">
          <mxGeometry relative="1" as="geometry" />
        </mxCell>
        <mxCell id="4pqjHKZEjBiw4mUvzdSv-8" value="sharp_install_routes_helper" style="rounded=0;whiteSpace=wrap;html=1;fontFamily=Lucida Console;" vertex="1" parent="1">
          <mxGeometry x="920" y="310" width="230" height="60" as="geometry" />
        </mxCell>
        <mxCell id="4pqjHKZEjBiw4mUvzdSv-9" style="edgeStyle=orthogonalEdgeStyle;rounded=0;orthogonalLoop=1;jettySize=auto;html=1;fontFamily=Lucida Console;" edge="1" parent="1" source="4pqjHKZEjBiw4mUvzdSv-11" target="4pqjHKZEjBiw4mUvzdSv-12">
          <mxGeometry relative="1" as="geometry" />
        </mxCell>
        <mxCell id="4pqjHKZEjBiw4mUvzdSv-10" style="edgeStyle=orthogonalEdgeStyle;rounded=0;orthogonalLoop=1;jettySize=auto;html=1;fontFamily=Lucida Console;" edge="1" parent="1" source="4pqjHKZEjBiw4mUvzdSv-11" target="4pqjHKZEjBiw4mUvzdSv-18">
          <mxGeometry relative="1" as="geometry" />
        </mxCell>
        <mxCell id="4pqjHKZEjBiw4mUvzdSv-11" value="install_seg6_routes_cmd" style="rounded=0;whiteSpace=wrap;html=1;fontFamily=Lucida Console;fillColor=#ffe6cc;strokeColor=#d79b00;" vertex="1" parent="1">
          <mxGeometry x="1440" y="120" width="240" height="60" as="geometry" />
        </mxCell>
        <mxCell id="4pqjHKZEjBiw4mUvzdSv-12" value="nexthop_add_srv6_seg6" style="rounded=0;whiteSpace=wrap;html=1;fontFamily=Lucida Console;" vertex="1" parent="1">
          <mxGeometry x="1280" y="310" width="230" height="60" as="geometry" />
        </mxCell>
        <mxCell id="4pqjHKZEjBiw4mUvzdSv-13" style="edgeStyle=orthogonalEdgeStyle;rounded=0;orthogonalLoop=1;jettySize=auto;html=1;fontFamily=Lucida Console;" edge="1" parent="1" source="4pqjHKZEjBiw4mUvzdSv-14" target="4pqjHKZEjBiw4mUvzdSv-16">
          <mxGeometry relative="1" as="geometry">
            <Array as="points">
              <mxPoint x="1769" y="470" />
              <mxPoint x="1241" y="470" />
            </Array>
          </mxGeometry>
        </mxCell>
        <mxCell id="4pqjHKZEjBiw4mUvzdSv-14" value="sharp_install_routes_helper" style="rounded=0;whiteSpace=wrap;html=1;fontFamily=Lucida Console;" vertex="1" parent="1">
          <mxGeometry x="1654" y="310" width="230" height="60" as="geometry" />
        </mxCell>
        <mxCell id="4pqjHKZEjBiw4mUvzdSv-15" style="edgeStyle=orthogonalEdgeStyle;rounded=0;orthogonalLoop=1;jettySize=auto;html=1;fontFamily=Lucida Console;" edge="1" parent="1" source="4pqjHKZEjBiw4mUvzdSv-16" target="4pqjHKZEjBiw4mUvzdSv-17">
          <mxGeometry relative="1" as="geometry" />
        </mxCell>
        <mxCell id="4pqjHKZEjBiw4mUvzdSv-16" value="sharp_install_routes_restart" style="rounded=0;whiteSpace=wrap;html=1;fontFamily=Lucida Console;" vertex="1" parent="1">
          <mxGeometry x="1126" y="570" width="230" height="60" as="geometry" />
        </mxCell>
        <mxCell id="4pqjHKZEjBiw4mUvzdSv-17" value="route_add" style="rounded=0;whiteSpace=wrap;html=1;fontFamily=Lucida Console;" vertex="1" parent="1">
          <mxGeometry x="1126" y="690" width="230" height="60" as="geometry" />
        </mxCell>
        <mxCell id="4pqjHKZEjBiw4mUvzdSv-18" value="NEXTHOP_TYPE_IFINDEX" style="rounded=0;whiteSpace=wrap;html=1;fontFamily=Lucida Console;fillColor=#fff2cc;strokeColor=#d6b656;" vertex="1" parent="1">
          <mxGeometry x="1654" y="250" width="230" height="60" as="geometry" />
        </mxCell>
        <mxCell id="4pqjHKZEjBiw4mUvzdSv-19" value="NEXTHOP_TYPE_IPV6" style="rounded=0;whiteSpace=wrap;html=1;fontFamily=Lucida Console;fillColor=#fff2cc;strokeColor=#d6b656;" vertex="1" parent="1">
          <mxGeometry x="920" y="250" width="230" height="60" as="geometry" />
        </mxCell>
        <mxCell id="4pqjHKZEjBiw4mUvzdSv-20" value="&lt;font style=&quot;font-size: 72px&quot;&gt;&lt;b&gt;Frr&amp;nbsp; srv6 sharpd 下发&lt;/b&gt;&lt;/font&gt;" style="text;html=1;strokeColor=none;fillColor=none;align=center;verticalAlign=middle;whiteSpace=wrap;rounded=0;fontFamily=Lucida Console;" vertex="1" parent="1">
          <mxGeometry x="-10" y="-50" width="990" height="90" as="geometry" />
        </mxCell>
        <mxCell id="4pqjHKZEjBiw4mUvzdSv-21" value="&lt;font style=&quot;font-size: 72px&quot;&gt;&lt;b&gt;fpmsyncd 接收&lt;/b&gt;&lt;/font&gt;" style="text;html=1;strokeColor=none;fillColor=none;align=center;verticalAlign=middle;whiteSpace=wrap;rounded=0;fontFamily=Lucida Console;" vertex="1" parent="1">
          <mxGeometry x="60" y="1645" width="700" height="30" as="geometry" />
        </mxCell>
        <mxCell id="4pqjHKZEjBiw4mUvzdSv-22" style="edgeStyle=orthogonalEdgeStyle;rounded=0;orthogonalLoop=1;jettySize=auto;html=1;fontFamily=Lucida Console;fontSize=36;fontColor=#FF0000;" edge="1" parent="1" source="4pqjHKZEjBiw4mUvzdSv-24" target="4pqjHKZEjBiw4mUvzdSv-62">
          <mxGeometry relative="1" as="geometry">
            <Array as="points">
              <mxPoint x="755" y="1900" />
              <mxPoint x="485" y="1900" />
            </Array>
          </mxGeometry>
        </mxCell>
        <mxCell id="4pqjHKZEjBiw4mUvzdSv-23" style="edgeStyle=orthogonalEdgeStyle;rounded=0;orthogonalLoop=1;jettySize=auto;html=1;fontFamily=Lucida Console;fontSize=36;fontColor=#FF0000;" edge="1" parent="1" source="4pqjHKZEjBiw4mUvzdSv-24" target="4pqjHKZEjBiw4mUvzdSv-64">
          <mxGeometry relative="1" as="geometry" />
        </mxCell>
        <mxCell id="4pqjHKZEjBiw4mUvzdSv-24" value="FpmLink::readData()" style="rounded=0;whiteSpace=wrap;html=1;fontFamily=Lucida Console;" vertex="1" parent="1">
          <mxGeometry x="640" y="1810" width="230" height="60" as="geometry" />
        </mxCell>
        <mxCell id="4pqjHKZEjBiw4mUvzdSv-25" style="edgeStyle=orthogonalEdgeStyle;rounded=0;orthogonalLoop=1;jettySize=auto;html=1;fontFamily=Lucida Console;fontSize=36;fontColor=#FF0000;" edge="1" parent="1" source="4pqjHKZEjBiw4mUvzdSv-26" target="4pqjHKZEjBiw4mUvzdSv-61">
          <mxGeometry relative="1" as="geometry" />
        </mxCell>
        <mxCell id="4pqjHKZEjBiw4mUvzdSv-26" value="zfpm_encode_route" style="rounded=0;whiteSpace=wrap;html=1;fontFamily=Lucida Console;" vertex="1" parent="1">
          <mxGeometry x="4554" y="1630" width="230" height="60" as="geometry" />
        </mxCell>
        <mxCell id="4pqjHKZEjBiw4mUvzdSv-27" value="zfpm_encode_mac" style="rounded=0;whiteSpace=wrap;html=1;fontFamily=Lucida Console;" vertex="1" parent="1">
          <mxGeometry x="4930" y="1630" width="230" height="60" as="geometry" />
        </mxCell>
        <mxCell id="4pqjHKZEjBiw4mUvzdSv-28" style="edgeStyle=orthogonalEdgeStyle;rounded=0;orthogonalLoop=1;jettySize=auto;html=1;fontFamily=Lucida Console;fontSize=36;" edge="1" parent="1" source="4pqjHKZEjBiw4mUvzdSv-29" target="4pqjHKZEjBiw4mUvzdSv-31">
          <mxGeometry relative="1" as="geometry" />
        </mxCell>
        <mxCell id="4pqjHKZEjBiw4mUvzdSv-29" value="zfpm_trigger_update" style="rounded=0;whiteSpace=wrap;html=1;fontFamily=Lucida Console;" vertex="1" parent="1">
          <mxGeometry x="4540" y="1050" width="230" height="60" as="geometry" />
        </mxCell>
        <mxCell id="4pqjHKZEjBiw4mUvzdSv-30" style="edgeStyle=orthogonalEdgeStyle;rounded=0;orthogonalLoop=1;jettySize=auto;html=1;fontFamily=Lucida Console;fontSize=36;" edge="1" parent="1" source="4pqjHKZEjBiw4mUvzdSv-31" target="4pqjHKZEjBiw4mUvzdSv-33">
          <mxGeometry relative="1" as="geometry" />
        </mxCell>
        <mxCell id="4pqjHKZEjBiw4mUvzdSv-31" value="zfpm_write_on" style="rounded=0;whiteSpace=wrap;html=1;fontFamily=Lucida Console;" vertex="1" parent="1">
          <mxGeometry x="4750" y="1210" width="230" height="60" as="geometry" />
        </mxCell>
        <mxCell id="4pqjHKZEjBiw4mUvzdSv-32" style="edgeStyle=orthogonalEdgeStyle;rounded=0;orthogonalLoop=1;jettySize=auto;html=1;fontFamily=Lucida Console;fontSize=36;" edge="1" parent="1" source="4pqjHKZEjBiw4mUvzdSv-33" target="4pqjHKZEjBiw4mUvzdSv-36">
          <mxGeometry relative="1" as="geometry" />
        </mxCell>
        <mxCell id="4pqjHKZEjBiw4mUvzdSv-33" value="zfpm_write_cb" style="rounded=0;whiteSpace=wrap;html=1;fontFamily=Lucida Console;" vertex="1" parent="1">
          <mxGeometry x="4750" y="1315" width="230" height="60" as="geometry" />
        </mxCell>
        <mxCell id="4pqjHKZEjBiw4mUvzdSv-34" style="edgeStyle=orthogonalEdgeStyle;rounded=0;orthogonalLoop=1;jettySize=auto;html=1;fontFamily=Lucida Console;fontSize=36;" edge="1" parent="1" source="4pqjHKZEjBiw4mUvzdSv-36" target="4pqjHKZEjBiw4mUvzdSv-38">
          <mxGeometry relative="1" as="geometry" />
        </mxCell>
        <mxCell id="4pqjHKZEjBiw4mUvzdSv-35" style="edgeStyle=orthogonalEdgeStyle;rounded=0;orthogonalLoop=1;jettySize=auto;html=1;fontFamily=Lucida Console;fontSize=36;fontColor=#FF0000;" edge="1" parent="1" source="4pqjHKZEjBiw4mUvzdSv-36" target="4pqjHKZEjBiw4mUvzdSv-40">
          <mxGeometry relative="1" as="geometry" />
        </mxCell>
        <mxCell id="4pqjHKZEjBiw4mUvzdSv-36" value="zfpm_build_updates" style="rounded=0;whiteSpace=wrap;html=1;fontFamily=Lucida Console;" vertex="1" parent="1">
          <mxGeometry x="4750" y="1409" width="230" height="60" as="geometry" />
        </mxCell>
        <mxCell id="4pqjHKZEjBiw4mUvzdSv-37" style="edgeStyle=orthogonalEdgeStyle;rounded=0;orthogonalLoop=1;jettySize=auto;html=1;fontFamily=Lucida Console;fontSize=36;" edge="1" parent="1" source="4pqjHKZEjBiw4mUvzdSv-38" target="4pqjHKZEjBiw4mUvzdSv-26">
          <mxGeometry relative="1" as="geometry" />
        </mxCell>
        <mxCell id="4pqjHKZEjBiw4mUvzdSv-38" value="zfpm_build_route_updates" style="rounded=0;whiteSpace=wrap;html=1;fontFamily=Lucida Console;" vertex="1" parent="1">
          <mxGeometry x="4554" y="1540" width="230" height="60" as="geometry" />
        </mxCell>
        <mxCell id="4pqjHKZEjBiw4mUvzdSv-39" style="edgeStyle=orthogonalEdgeStyle;rounded=0;orthogonalLoop=1;jettySize=auto;html=1;fontFamily=Lucida Console;fontSize=36;fontColor=#FF0000;" edge="1" parent="1" source="4pqjHKZEjBiw4mUvzdSv-40" target="4pqjHKZEjBiw4mUvzdSv-27">
          <mxGeometry relative="1" as="geometry" />
        </mxCell>
        <mxCell id="4pqjHKZEjBiw4mUvzdSv-40" value="zfpm_build_mac_updates" style="rounded=0;whiteSpace=wrap;html=1;fontFamily=Lucida Console;" vertex="1" parent="1">
          <mxGeometry x="4930" y="1540" width="230" height="60" as="geometry" />
        </mxCell>
        <mxCell id="4pqjHKZEjBiw4mUvzdSv-41" style="edgeStyle=orthogonalEdgeStyle;rounded=0;orthogonalLoop=1;jettySize=auto;html=1;fontFamily=Lucida Console;fontSize=36;fontColor=#FF0000;" edge="1" parent="1" source="4pqjHKZEjBiw4mUvzdSv-42" target="4pqjHKZEjBiw4mUvzdSv-31">
          <mxGeometry relative="1" as="geometry" />
        </mxCell>
        <mxCell id="4pqjHKZEjBiw4mUvzdSv-42" value="zfpm_trigger_rmac_update" style="rounded=0;whiteSpace=wrap;html=1;fontFamily=Lucida Console;" vertex="1" parent="1">
          <mxGeometry x="4960" y="1050" width="230" height="60" as="geometry" />
        </mxCell>
        <mxCell id="4pqjHKZEjBiw4mUvzdSv-43" style="edgeStyle=orthogonalEdgeStyle;rounded=0;orthogonalLoop=1;jettySize=auto;html=1;fontFamily=Lucida Console;fontSize=36;fontColor=#FF0000;" edge="1" parent="1" source="4pqjHKZEjBiw4mUvzdSv-44" target="4pqjHKZEjBiw4mUvzdSv-42">
          <mxGeometry relative="1" as="geometry" />
        </mxCell>
        <mxCell id="4pqjHKZEjBiw4mUvzdSv-44" value="hook_register(rib_update, zfpm_trigger_update);" style="rounded=0;whiteSpace=wrap;html=1;fontFamily=Lucida Console;" vertex="1" parent="1">
          <mxGeometry x="4960" y="930" width="230" height="60" as="geometry" />
        </mxCell>
        <mxCell id="4pqjHKZEjBiw4mUvzdSv-45" style="edgeStyle=orthogonalEdgeStyle;rounded=0;orthogonalLoop=1;jettySize=auto;html=1;fontFamily=Lucida Console;fontSize=36;" edge="1" parent="1" source="4pqjHKZEjBiw4mUvzdSv-46" target="4pqjHKZEjBiw4mUvzdSv-29">
          <mxGeometry relative="1" as="geometry" />
        </mxCell>
        <mxCell id="4pqjHKZEjBiw4mUvzdSv-46" value="hook_register(rib_update, zfpm_trigger_update);" style="rounded=0;whiteSpace=wrap;html=1;fontFamily=Lucida Console;" vertex="1" parent="1">
          <mxGeometry x="4540" y="930" width="230" height="60" as="geometry" />
        </mxCell>
        <mxCell id="4pqjHKZEjBiw4mUvzdSv-47" style="edgeStyle=orthogonalEdgeStyle;rounded=0;orthogonalLoop=1;jettySize=auto;html=1;fontFamily=Lucida Console;fontSize=36;" edge="1" parent="1" source="4pqjHKZEjBiw4mUvzdSv-48" target="4pqjHKZEjBiw4mUvzdSv-46">
          <mxGeometry relative="1" as="geometry" />
        </mxCell>
        <mxCell id="4pqjHKZEjBiw4mUvzdSv-48" value="rib_update" style="rounded=0;whiteSpace=wrap;html=1;fontFamily=Lucida Console;" vertex="1" parent="1">
          <mxGeometry x="4540" y="830" width="230" height="60" as="geometry" />
        </mxCell>
        <mxCell id="4pqjHKZEjBiw4mUvzdSv-49" style="edgeStyle=orthogonalEdgeStyle;rounded=0;orthogonalLoop=1;jettySize=auto;html=1;fontFamily=Lucida Console;fontSize=36;fontColor=#FF0000;" edge="1" parent="1" source="4pqjHKZEjBiw4mUvzdSv-50" target="4pqjHKZEjBiw4mUvzdSv-44">
          <mxGeometry relative="1" as="geometry" />
        </mxCell>
        <mxCell id="4pqjHKZEjBiw4mUvzdSv-50" value="zebra_rmac_update" style="rounded=0;whiteSpace=wrap;html=1;fontFamily=Lucida Console;" vertex="1" parent="1">
          <mxGeometry x="4960" y="830" width="230" height="60" as="geometry" />
        </mxCell>
        <mxCell id="4pqjHKZEjBiw4mUvzdSv-51" style="edgeStyle=orthogonalEdgeStyle;rounded=0;orthogonalLoop=1;jettySize=auto;html=1;fontFamily=Lucida Console;fontSize=36;" edge="1" parent="1" source="4pqjHKZEjBiw4mUvzdSv-52" target="4pqjHKZEjBiw4mUvzdSv-48">
          <mxGeometry relative="1" as="geometry" />
        </mxCell>
        <mxCell id="4pqjHKZEjBiw4mUvzdSv-52" value="rib_process" style="rounded=0;whiteSpace=wrap;html=1;fontFamily=Lucida Console;" vertex="1" parent="1">
          <mxGeometry x="4540" y="730" width="230" height="60" as="geometry" />
        </mxCell>
        <mxCell id="4pqjHKZEjBiw4mUvzdSv-53" style="edgeStyle=orthogonalEdgeStyle;rounded=0;orthogonalLoop=1;jettySize=auto;html=1;fontFamily=Lucida Console;fontSize=36;" edge="1" parent="1" source="4pqjHKZEjBiw4mUvzdSv-54" target="4pqjHKZEjBiw4mUvzdSv-52">
          <mxGeometry relative="1" as="geometry" />
        </mxCell>
        <mxCell id="4pqjHKZEjBiw4mUvzdSv-54" value="process_subq_route" style="rounded=0;whiteSpace=wrap;html=1;fontFamily=Lucida Console;" vertex="1" parent="1">
          <mxGeometry x="4540" y="630" width="230" height="60" as="geometry" />
        </mxCell>
        <mxCell id="4pqjHKZEjBiw4mUvzdSv-55" style="edgeStyle=orthogonalEdgeStyle;rounded=0;orthogonalLoop=1;jettySize=auto;html=1;fontFamily=Lucida Console;fontSize=36;" edge="1" parent="1" source="4pqjHKZEjBiw4mUvzdSv-56" target="4pqjHKZEjBiw4mUvzdSv-54">
          <mxGeometry relative="1" as="geometry" />
        </mxCell>
        <mxCell id="4pqjHKZEjBiw4mUvzdSv-56" value="process_subq" style="rounded=0;whiteSpace=wrap;html=1;fontFamily=Lucida Console;" vertex="1" parent="1">
          <mxGeometry x="4540" y="540" width="230" height="60" as="geometry" />
        </mxCell>
        <mxCell id="4pqjHKZEjBiw4mUvzdSv-57" value="process_subq" style="rounded=0;whiteSpace=wrap;html=1;fontFamily=Lucida Console;" vertex="1" parent="1">
          <mxGeometry x="4540" y="450" width="230" height="60" as="geometry" />
        </mxCell>
        <mxCell id="4pqjHKZEjBiw4mUvzdSv-58" style="edgeStyle=orthogonalEdgeStyle;rounded=0;orthogonalLoop=1;jettySize=auto;html=1;fontFamily=Lucida Console;fontSize=36;" edge="1" parent="1" source="4pqjHKZEjBiw4mUvzdSv-59" target="4pqjHKZEjBiw4mUvzdSv-56">
          <mxGeometry relative="1" as="geometry" />
        </mxCell>
        <mxCell id="4pqjHKZEjBiw4mUvzdSv-59" value="meta_queue_process" style="rounded=0;whiteSpace=wrap;html=1;fontFamily=Lucida Console;" vertex="1" parent="1">
          <mxGeometry x="4540" y="450" width="230" height="60" as="geometry" />
        </mxCell>
        <mxCell id="4pqjHKZEjBiw4mUvzdSv-60" value="zfpm_netlink_encode_route" style="rounded=0;whiteSpace=wrap;html=1;fontFamily=Lucida Console;" vertex="1" parent="1">
          <mxGeometry x="4554" y="1780" width="230" height="60" as="geometry" />
        </mxCell>
        <mxCell id="4pqjHKZEjBiw4mUvzdSv-61" value="*msg_type = &lt;font color=&quot;#ff0000&quot;&gt;FPM_MSG_TYPE_NETLINK&lt;/font&gt;" style="rounded=0;whiteSpace=wrap;html=1;fontFamily=Lucida Console;" vertex="1" parent="1">
          <mxGeometry x="4554" y="1720" width="230" height="60" as="geometry" />
        </mxCell>
        <mxCell id="4pqjHKZEjBiw4mUvzdSv-62" value="isRaw = isRawProcessing(nl_hdr);" style="rounded=0;whiteSpace=wrap;html=1;fontFamily=Lucida Console;" vertex="1" parent="1">
          <mxGeometry x="340" y="1940" width="290" height="60" as="geometry" />
        </mxCell>
        <mxCell id="4pqjHKZEjBiw4mUvzdSv-63" style="edgeStyle=orthogonalEdgeStyle;rounded=0;orthogonalLoop=1;jettySize=auto;html=1;fontFamily=Lucida Console;fontSize=36;fontColor=#FF0000;" edge="1" parent="1" source="4pqjHKZEjBiw4mUvzdSv-64" target="4pqjHKZEjBiw4mUvzdSv-68">
          <mxGeometry relative="1" as="geometry" />
        </mxCell>
        <mxCell id="4pqjHKZEjBiw4mUvzdSv-64" value="processRawMsg" style="rounded=0;whiteSpace=wrap;html=1;fontFamily=Lucida Console;" vertex="1" parent="1">
          <mxGeometry x="640" y="2050" width="230" height="60" as="geometry" />
        </mxCell>
        <mxCell id="4pqjHKZEjBiw4mUvzdSv-65" style="edgeStyle=orthogonalEdgeStyle;rounded=0;orthogonalLoop=1;jettySize=auto;html=1;fontFamily=Lucida Console;fontSize=36;fontColor=#FF0000;" edge="1" parent="1" source="4pqjHKZEjBiw4mUvzdSv-68" target="4pqjHKZEjBiw4mUvzdSv-71">
          <mxGeometry relative="1" as="geometry">
            <Array as="points">
              <mxPoint x="755" y="2290" />
              <mxPoint x="645" y="2290" />
            </Array>
          </mxGeometry>
        </mxCell>
        <mxCell id="4pqjHKZEjBiw4mUvzdSv-66" style="edgeStyle=orthogonalEdgeStyle;rounded=0;orthogonalLoop=1;jettySize=auto;html=1;fontFamily=Lucida Console;fontSize=36;fontColor=#FF0000;" edge="1" parent="1" source="4pqjHKZEjBiw4mUvzdSv-68" target="4pqjHKZEjBiw4mUvzdSv-72">
          <mxGeometry relative="1" as="geometry">
            <Array as="points">
              <mxPoint x="755" y="2290" />
              <mxPoint x="955" y="2290" />
            </Array>
          </mxGeometry>
        </mxCell>
        <mxCell id="4pqjHKZEjBiw4mUvzdSv-67" style="edgeStyle=orthogonalEdgeStyle;rounded=0;orthogonalLoop=1;jettySize=auto;html=1;fontFamily=Lucida Console;fontSize=36;fontColor=#FF0000;" edge="1" parent="1" source="4pqjHKZEjBiw4mUvzdSv-68" target="4pqjHKZEjBiw4mUvzdSv-73">
          <mxGeometry relative="1" as="geometry">
            <Array as="points">
              <mxPoint x="755" y="2290" />
              <mxPoint x="1265" y="2290" />
            </Array>
          </mxGeometry>
        </mxCell>
        <mxCell id="4pqjHKZEjBiw4mUvzdSv-68" value="m_routesync-&amp;gt;onMsgRaw(h)" style="rounded=0;whiteSpace=wrap;html=1;fontFamily=Lucida Console;" vertex="1" parent="1">
          <mxGeometry x="640" y="2160" width="230" height="60" as="geometry" />
        </mxCell>
        <mxCell id="4pqjHKZEjBiw4mUvzdSv-69" value="RTM_NEWROUTE" style="rounded=0;whiteSpace=wrap;html=1;fontFamily=Lucida Console;fillColor=#f8cecc;strokeColor=#b85450;" vertex="1" parent="1">
          <mxGeometry x="460" y="2250" width="130" height="38" as="geometry" />
        </mxCell>
        <mxCell id="4pqjHKZEjBiw4mUvzdSv-70" value="RTM_DELROUTE" style="rounded=0;whiteSpace=wrap;html=1;fontFamily=Lucida Console;fillColor=#f8cecc;strokeColor=#b85450;" vertex="1" parent="1">
          <mxGeometry x="460" y="2288" width="130" height="42" as="geometry" />
        </mxCell>
        <mxCell id="4pqjHKZEjBiw4mUvzdSv-71" value="NH_ENCAP_VXLAN" style="rounded=0;whiteSpace=wrap;html=1;fontFamily=Lucida Console;fillColor=#ffe6cc;strokeColor=#d79b00;" vertex="1" parent="1">
          <mxGeometry x="530" y="2370" width="230" height="60" as="geometry" />
        </mxCell>
        <mxCell id="4pqjHKZEjBiw4mUvzdSv-72" value="NH_ENCAP_SRV6_LOCAL_SID" style="rounded=0;whiteSpace=wrap;html=1;fontFamily=Lucida Console;fillColor=#ffe6cc;strokeColor=#d79b00;" vertex="1" parent="1">
          <mxGeometry x="840" y="2370" width="230" height="60" as="geometry" />
        </mxCell>
        <mxCell id="4pqjHKZEjBiw4mUvzdSv-73" value="NH_ENCAP_SRV6_SERVICE_SID" style="rounded=0;whiteSpace=wrap;html=1;fontFamily=Lucida Console;fillColor=#ffe6cc;strokeColor=#d79b00;" vertex="1" parent="1">
          <mxGeometry x="1150" y="2370" width="230" height="60" as="geometry" />
        </mxCell>
        <mxCell id="4pqjHKZEjBiw4mUvzdSv-74" value="onEvpnRouteMsg" style="rounded=0;whiteSpace=wrap;html=1;fontFamily=Lucida Console;" vertex="1" parent="1">
          <mxGeometry x="530" y="2430" width="230" height="60" as="geometry" />
        </mxCell>
        <mxCell id="4pqjHKZEjBiw4mUvzdSv-75" value="onSrv6LocalSidRouteMsg" style="rounded=0;whiteSpace=wrap;html=1;fontFamily=Lucida Console;" vertex="1" parent="1">
          <mxGeometry x="840" y="2430" width="230" height="60" as="geometry" />
        </mxCell>
        <mxCell id="4pqjHKZEjBiw4mUvzdSv-76" value="onRouteServiceSidMsg" style="rounded=0;whiteSpace=wrap;html=1;fontFamily=Lucida Console;" vertex="1" parent="1">
          <mxGeometry x="1150" y="2430" width="230" height="60" as="geometry" />
        </mxCell>
        <mxCell id="4pqjHKZEjBiw4mUvzdSv-77" style="edgeStyle=orthogonalEdgeStyle;rounded=0;orthogonalLoop=1;jettySize=auto;html=1;fontFamily=Lucida Console;fontSize=36;fontColor=#FF0000;" edge="1" parent="1" source="4pqjHKZEjBiw4mUvzdSv-78" target="4pqjHKZEjBiw4mUvzdSv-80">
          <mxGeometry relative="1" as="geometry" />
        </mxCell>
        <mxCell id="4pqjHKZEjBiw4mUvzdSv-78" value="zebra_srv6_local_sid_add" style="rounded=0;whiteSpace=wrap;html=1;fontFamily=Lucida Console;" vertex="1" parent="1">
          <mxGeometry x="610" y="2980" width="230" height="60" as="geometry" />
        </mxCell>
        <mxCell id="4pqjHKZEjBiw4mUvzdSv-79" style="edgeStyle=orthogonalEdgeStyle;rounded=0;orthogonalLoop=1;jettySize=auto;html=1;fontFamily=Lucida Console;fontSize=36;fontColor=#FF0000;" edge="1" parent="1" source="4pqjHKZEjBiw4mUvzdSv-80" target="4pqjHKZEjBiw4mUvzdSv-81">
          <mxGeometry relative="1" as="geometry" />
        </mxCell>
        <mxCell id="4pqjHKZEjBiw4mUvzdSv-80" value="zebra_route_add" style="rounded=0;whiteSpace=wrap;html=1;fontFamily=Lucida Console;" vertex="1" parent="1">
          <mxGeometry x="610" y="3100" width="230" height="60" as="geometry" />
        </mxCell>
        <mxCell id="4pqjHKZEjBiw4mUvzdSv-81" value="rib_add_multipath_nhe" style="rounded=0;whiteSpace=wrap;html=1;fontFamily=Lucida Console;" vertex="1" parent="1">
          <mxGeometry x="610" y="3230" width="230" height="60" as="geometry" />
        </mxCell>
        <mxCell id="4pqjHKZEjBiw4mUvzdSv-82" value="&lt;font style=&quot;font-size: 72px&quot;&gt;&lt;b&gt;zebra&lt;/b&gt;&lt;/font&gt;" style="text;html=1;strokeColor=none;fillColor=none;align=center;verticalAlign=middle;whiteSpace=wrap;rounded=0;fontFamily=Lucida Console;" vertex="1" parent="1">
          <mxGeometry x="4710" y="170" width="410" height="30" as="geometry" />
        </mxCell>
        <mxCell id="4pqjHKZEjBiw4mUvzdSv-83" value="&lt;font style=&quot;font-size: 72px&quot;&gt;&lt;b&gt;bgpd&lt;/b&gt;&lt;/font&gt;" style="text;html=1;strokeColor=none;fillColor=none;align=center;verticalAlign=middle;whiteSpace=wrap;rounded=0;fontFamily=Lucida Console;" vertex="1" parent="1">
          <mxGeometry x="1030" y="1300" width="410" height="30" as="geometry" />
        </mxCell>
        <mxCell id="4pqjHKZEjBiw4mUvzdSv-84" value="&lt;font style=&quot;font-size: 72px&quot;&gt;&lt;b&gt;pathd&lt;/b&gt;&lt;/font&gt;" style="text;html=1;strokeColor=none;fillColor=none;align=center;verticalAlign=middle;whiteSpace=wrap;rounded=0;fontFamily=Lucida Console;" vertex="1" parent="1">
          <mxGeometry x="1840" y="970" width="410" height="110" as="geometry" />
        </mxCell>
        <mxCell id="4pqjHKZEjBiw4mUvzdSv-85" style="edgeStyle=orthogonalEdgeStyle;rounded=0;orthogonalLoop=1;jettySize=auto;html=1;fontFamily=Lucida Console;fontSize=72;fontColor=#FF0000;" edge="1" parent="1" source="4pqjHKZEjBiw4mUvzdSv-21" target="4pqjHKZEjBiw4mUvzdSv-21">
          <mxGeometry relative="1" as="geometry" />
        </mxCell>
      </root>
    </mxGraphModel>
  </diagram>
</mxfile>
